<svg width="14" height="18" viewBox="0 0 14 18" fill="none" xmlns="http://www.w3.org/2000/svg">
<path d="M0.813 0.165446C1.05835 0.0391055 1.3338 -0.0171001 1.60904 0.00301326C1.88427 0.0231266 2.14862 0.11878 2.373 0.279447L12.873 7.77945C13.0674 7.9182 13.2259 8.10139 13.3353 8.31377C13.4447 8.52615 13.5017 8.76157 13.5017 9.00045C13.5017 9.23933 13.4447 9.47475 13.3353 9.68713C13.2259 9.8995 13.0674 10.0827 12.873 10.2214L2.373 17.7214C2.1487 17.882 1.88448 17.9776 1.60938 17.9977C1.33429 18.0178 1.05898 17.9617 0.813711 17.8355C0.568446 17.7093 0.362726 17.5179 0.219169 17.2824C0.0756124 17.0468 -0.000222998 16.7763 8.23264e-07 16.5005V1.50045C-0.000288035 1.22469 0.0754419 0.954198 0.218869 0.718681C0.362296 0.483164 0.567869 0.291741 0.813 0.165446Z" fill="white" style="fill:white;fill-opacity:1;"/>
</svg>
